<svg width="439" height="397" viewBox="0 0 439 397" fill="none" xmlns="http://www.w3.org/2000/svg">
<path d="M75 124L139.952 161.5V236.5L75 274L10.0481 236.5V161.5L75 124Z" fill="#10B981"/>
<path d="M46.1222 206H44.4602L49.267 192.909H50.9034L55.7102 206H54.0483L50.1364 194.98H50.0341L46.1222 206ZM46.7358 200.886H53.4347V202.293H46.7358V200.886ZM57.5447 206V196.182H59.0021V197.665H59.1044C59.2834 197.179 59.6072 196.785 60.076 196.482C60.5447 196.18 61.0732 196.028 61.6612 196.028C61.772 196.028 61.9105 196.031 62.0767 196.035C62.2429 196.039 62.3686 196.045 62.4538 196.054V197.588C62.4027 197.575 62.2855 197.556 62.1023 197.531C61.9233 197.501 61.7337 197.486 61.5334 197.486C61.0561 197.486 60.63 197.586 60.255 197.786C59.8842 197.982 59.5902 198.255 59.3729 198.604C59.1598 198.95 59.0533 199.344 59.0533 199.787V206H57.5447ZM69.1271 196.182V197.46H64.0391V196.182H69.1271ZM65.522 193.83H67.0305V203.188C67.0305 203.614 67.0923 203.933 67.2159 204.146C67.3438 204.355 67.5057 204.496 67.7017 204.568C67.902 204.636 68.1129 204.67 68.3345 204.67C68.5007 204.67 68.6371 204.662 68.7436 204.645C68.8501 204.624 68.9354 204.607 68.9993 204.594L69.3061 205.949C69.2038 205.987 69.0611 206.026 68.8778 206.064C68.6946 206.107 68.4624 206.128 68.1811 206.128C67.755 206.128 67.3374 206.036 66.9283 205.853C66.5234 205.67 66.1868 205.391 65.9183 205.016C65.6541 204.641 65.522 204.168 65.522 203.597V193.83ZM71.3963 206V196.182H72.9048V206H71.3963ZM72.1634 194.545C71.8693 194.545 71.6158 194.445 71.4027 194.245C71.1939 194.045 71.0895 193.804 71.0895 193.523C71.0895 193.241 71.1939 193.001 71.4027 192.8C71.6158 192.6 71.8693 192.5 72.1634 192.5C72.4574 192.5 72.7088 192.6 72.9176 192.8C73.1307 193.001 73.2372 193.241 73.2372 193.523C73.2372 193.804 73.1307 194.045 72.9176 194.245C72.7088 194.445 72.4574 194.545 72.1634 194.545ZM82.6223 198.381L81.2672 198.764C81.182 198.538 81.0563 198.319 80.8901 198.106C80.7282 197.888 80.5066 197.71 80.2253 197.569C79.9441 197.428 79.584 197.358 79.1451 197.358C78.5442 197.358 78.0435 197.496 77.6429 197.773C77.2466 198.046 77.0485 198.393 77.0485 198.815C77.0485 199.19 77.1848 199.487 77.4576 199.704C77.7303 199.921 78.1564 200.102 78.736 200.247L80.1934 200.605C81.0712 200.818 81.7253 201.144 82.1557 201.583C82.5861 202.018 82.8013 202.578 82.8013 203.264C82.8013 203.827 82.6394 204.33 82.3155 204.773C81.9959 205.216 81.5485 205.565 80.9732 205.821C80.3979 206.077 79.7289 206.205 78.9661 206.205C77.9647 206.205 77.1358 205.987 76.4796 205.553C75.8233 205.118 75.4078 204.483 75.2331 203.648L76.665 203.29C76.8013 203.818 77.0591 204.214 77.4384 204.479C77.8219 204.743 78.3226 204.875 78.9405 204.875C79.6436 204.875 80.2019 204.726 80.6152 204.428C81.0328 204.125 81.2417 203.763 81.2417 203.341C81.2417 203 81.1223 202.714 80.8837 202.484C80.6451 202.25 80.2786 202.075 79.7843 201.96L78.1479 201.577C77.2488 201.364 76.5882 201.033 76.1664 200.586C75.7488 200.134 75.54 199.57 75.54 198.892C75.54 198.338 75.6955 197.848 76.0066 197.422C76.3219 196.996 76.7502 196.661 77.2914 196.418C77.8368 196.175 78.4547 196.054 79.1451 196.054C80.1167 196.054 80.8794 196.267 81.4334 196.693C81.9917 197.119 82.388 197.682 82.6223 198.381ZM89.342 196.182V197.46H84.2539V196.182H89.342ZM85.7369 193.83H87.2454V203.188C87.2454 203.614 87.3072 203.933 87.4308 204.146C87.5586 204.355 87.7205 204.496 87.9165 204.568C88.1168 204.636 88.3278 204.67 88.5494 204.67C88.7156 204.67 88.8519 204.662 88.9585 204.645C89.065 204.624 89.1502 204.607 89.2141 204.594L89.521 205.949C89.4187 205.987 89.2759 206.026 89.0927 206.064C88.9094 206.107 88.6772 206.128 88.396 206.128C87.9698 206.128 87.5522 206.036 87.1431 205.853C86.7383 205.67 86.4016 205.391 86.1332 205.016C85.869 204.641 85.7369 204.168 85.7369 203.597V193.83ZM91.6112 206V196.182H93.1197V206H91.6112ZM92.3782 194.545C92.0842 194.545 91.8306 194.445 91.6175 194.245C91.4087 194.045 91.3043 193.804 91.3043 193.523C91.3043 193.241 91.4087 193.001 91.6175 192.8C91.8306 192.6 92.0842 192.5 92.3782 192.5C92.6722 192.5 92.9237 192.6 93.1325 192.8C93.3455 193.001 93.4521 193.241 93.4521 193.523C93.4521 193.804 93.3455 194.045 93.1325 194.245C92.9237 194.445 92.6722 194.545 92.3782 194.545ZM99.8713 206.205C98.9508 206.205 98.1582 205.987 97.4934 205.553C96.8287 205.118 96.3173 204.519 95.9593 203.756C95.6014 202.994 95.4224 202.122 95.4224 201.142C95.4224 200.145 95.6056 199.265 95.9721 198.502C96.3429 197.735 96.8585 197.136 97.519 196.706C98.1838 196.271 98.9593 196.054 99.8457 196.054C100.536 196.054 101.158 196.182 101.712 196.438C102.266 196.693 102.72 197.051 103.074 197.511C103.427 197.972 103.647 198.509 103.732 199.122H102.224C102.108 198.675 101.853 198.278 101.456 197.933C101.064 197.584 100.536 197.409 99.8713 197.409C99.2832 197.409 98.7676 197.562 98.3244 197.869C97.8855 198.172 97.5424 198.6 97.2953 199.154C97.0524 199.704 96.9309 200.349 96.9309 201.091C96.9309 201.849 97.0502 202.51 97.2889 203.072C97.5318 203.635 97.8727 204.072 98.3116 204.383C98.7548 204.694 99.2747 204.849 99.8713 204.849C100.263 204.849 100.619 204.781 100.939 204.645C101.258 204.509 101.529 204.312 101.751 204.057C101.972 203.801 102.13 203.494 102.224 203.136H103.732C103.647 203.716 103.436 204.238 103.099 204.702C102.767 205.163 102.326 205.529 101.776 205.802C101.231 206.07 100.596 206.205 99.8713 206.205Z" fill="black"/>
<path d="M150 0L214.952 37.5V112.5L150 150L85.0481 112.5V37.5L150 0Z" fill="#F97316"/>
<path d="M118.648 82V68.9091H123.071C124.094 68.9091 124.933 69.0838 125.589 69.4332C126.246 69.7784 126.732 70.2536 127.047 70.8587C127.362 71.4638 127.52 72.152 127.52 72.9233C127.52 73.6946 127.362 74.3786 127.047 74.9751C126.732 75.5717 126.248 76.0405 125.596 76.3814C124.944 76.718 124.111 76.8864 123.097 76.8864H119.517V75.4545H123.045C123.744 75.4545 124.307 75.3523 124.733 75.1477C125.163 74.9432 125.474 74.6534 125.666 74.2784C125.862 73.8991 125.96 73.4474 125.96 72.9233C125.96 72.3991 125.862 71.9411 125.666 71.549C125.47 71.157 125.157 70.8544 124.727 70.6413C124.296 70.424 123.727 70.3153 123.02 70.3153H120.233V82H118.648ZM124.81 76.1193L128.031 82H126.19L123.02 76.1193H124.81ZM133.968 82.2045C133.022 82.2045 132.206 81.9957 131.52 81.5781C130.838 81.1562 130.312 80.5682 129.941 79.8139C129.574 79.0554 129.391 78.1733 129.391 77.1676C129.391 76.1619 129.574 75.2756 129.941 74.5085C130.312 73.7372 130.827 73.1364 131.488 72.706C132.153 72.2713 132.928 72.054 133.814 72.054C134.326 72.054 134.831 72.1392 135.329 72.3097C135.828 72.4801 136.282 72.7571 136.691 73.1406C137.1 73.5199 137.426 74.0227 137.669 74.6491C137.912 75.2756 138.033 76.0469 138.033 76.9631V77.6023H130.465V76.2983H136.499C136.499 75.7443 136.388 75.25 136.167 74.8153C135.949 74.3807 135.638 74.0376 135.233 73.7862C134.833 73.5348 134.36 73.4091 133.814 73.4091C133.214 73.4091 132.694 73.5582 132.255 73.8565C131.82 74.1506 131.486 74.5341 131.251 75.0071C131.017 75.4801 130.9 75.9872 130.9 76.5284V77.3977C130.9 78.1392 131.028 78.7678 131.283 79.2834C131.543 79.7947 131.903 80.1847 132.363 80.4531C132.824 80.7173 133.358 80.8494 133.968 80.8494C134.364 80.8494 134.722 80.794 135.042 80.6832C135.366 80.5682 135.645 80.3977 135.879 80.1719C136.113 79.9418 136.295 79.6562 136.422 79.3153L137.88 79.7244C137.726 80.2188 137.469 80.6534 137.106 81.0284C136.744 81.3991 136.297 81.6889 135.764 81.8977C135.231 82.1023 134.633 82.2045 133.968 82.2045ZM143.217 82.2301C142.595 82.2301 142.03 82.1129 141.523 81.8786C141.016 81.6399 140.613 81.2969 140.315 80.8494C140.017 80.3977 139.868 79.8523 139.868 79.2131C139.868 78.6506 139.979 78.1946 140.2 77.8452C140.422 77.4915 140.718 77.2145 141.089 77.0142C141.459 76.8139 141.868 76.6648 142.316 76.5668C142.768 76.4645 143.221 76.3835 143.677 76.3239C144.274 76.2472 144.758 76.1896 145.128 76.1513C145.503 76.1087 145.776 76.0384 145.947 75.9403C146.121 75.8423 146.209 75.6719 146.209 75.429V75.3778C146.209 74.7472 146.036 74.2571 145.691 73.9077C145.35 73.5582 144.832 73.3835 144.138 73.3835C143.417 73.3835 142.853 73.5412 142.444 73.8565C142.035 74.1719 141.747 74.5085 141.581 74.8665L140.149 74.3551C140.405 73.7585 140.746 73.294 141.172 72.9616C141.602 72.625 142.071 72.3906 142.578 72.2585C143.089 72.1222 143.592 72.054 144.086 72.054C144.402 72.054 144.764 72.0923 145.173 72.169C145.586 72.2415 145.985 72.3928 146.368 72.6229C146.756 72.853 147.078 73.2003 147.334 73.6648C147.589 74.1293 147.717 74.7514 147.717 75.5312V82H146.209V80.6705H146.132C146.03 80.8835 145.859 81.1115 145.621 81.3544C145.382 81.5973 145.064 81.804 144.668 81.9744C144.272 82.1449 143.788 82.2301 143.217 82.2301ZM143.447 80.875C144.044 80.875 144.547 80.7578 144.956 80.5234C145.369 80.2891 145.68 79.9865 145.889 79.6158C146.102 79.245 146.209 78.8551 146.209 78.446V77.0653C146.145 77.142 146.004 77.2124 145.787 77.2763C145.574 77.3359 145.327 77.3892 145.045 77.4361C144.768 77.4787 144.498 77.517 144.233 77.5511C143.974 77.581 143.763 77.6065 143.601 77.6278C143.209 77.679 142.842 77.7621 142.501 77.8771C142.165 77.9879 141.892 78.1562 141.683 78.3821C141.479 78.6037 141.376 78.9062 141.376 79.2898C141.376 79.8139 141.57 80.2102 141.958 80.4787C142.35 80.7429 142.846 80.875 143.447 80.875ZM151.979 68.9091V82H150.471V68.9091H151.979ZM154.742 82V72.1818H156.251V82H154.742ZM155.509 70.5455C155.215 70.5455 154.961 70.4453 154.748 70.245C154.54 70.0447 154.435 69.804 154.435 69.5227C154.435 69.2415 154.54 69.0007 154.748 68.8004C154.961 68.6001 155.215 68.5 155.509 68.5C155.803 68.5 156.055 68.6001 156.263 68.8004C156.476 69.0007 156.583 69.2415 156.583 69.5227C156.583 69.804 156.476 70.0447 156.263 70.245C156.055 70.4453 155.803 70.5455 155.509 70.5455ZM165.968 74.3807L164.613 74.7642C164.528 74.5384 164.402 74.3189 164.236 74.1058C164.074 73.8885 163.852 73.7095 163.571 73.5689C163.29 73.4283 162.93 73.358 162.491 73.358C161.89 73.358 161.389 73.4964 160.989 73.7734C160.592 74.0462 160.394 74.3935 160.394 74.8153C160.394 75.1903 160.531 75.4865 160.803 75.7038C161.076 75.9212 161.502 76.1023 162.082 76.2472L163.539 76.6051C164.417 76.8182 165.071 77.1442 165.501 77.5831C165.932 78.0178 166.147 78.5781 166.147 79.2642C166.147 79.8267 165.985 80.3295 165.661 80.7727C165.342 81.2159 164.894 81.5653 164.319 81.821C163.744 82.0767 163.075 82.2045 162.312 82.2045C161.31 82.2045 160.482 81.9872 159.825 81.5526C159.169 81.1179 158.754 80.483 158.579 79.6477L160.011 79.2898C160.147 79.8182 160.405 80.2145 160.784 80.4787C161.168 80.7429 161.668 80.875 162.286 80.875C162.989 80.875 163.548 80.7259 163.961 80.4276C164.379 80.125 164.587 79.7628 164.587 79.3409C164.587 79 164.468 78.7145 164.229 78.4844C163.991 78.25 163.624 78.0753 163.13 77.9602L161.494 77.5767C160.594 77.3636 159.934 77.0334 159.512 76.5859C159.094 76.1342 158.886 75.5696 158.886 74.892C158.886 74.3381 159.041 73.848 159.352 73.4219C159.668 72.9957 160.096 72.6612 160.637 72.4183C161.183 72.1754 161.8 72.054 162.491 72.054C163.462 72.054 164.225 72.267 164.779 72.6932C165.337 73.1193 165.734 73.6818 165.968 74.3807ZM172.688 72.1818V73.4602H167.6V72.1818H172.688ZM169.083 69.8295H170.591V79.1875C170.591 79.6136 170.653 79.9332 170.776 80.1463C170.904 80.3551 171.066 80.4957 171.262 80.5682C171.463 80.6364 171.673 80.6705 171.895 80.6705C172.061 80.6705 172.198 80.6619 172.304 80.6449C172.411 80.6236 172.496 80.6065 172.56 80.5938L172.867 81.9489C172.764 81.9872 172.622 82.0256 172.438 82.0639C172.255 82.1065 172.023 82.1278 171.742 82.1278C171.316 82.1278 170.898 82.0362 170.489 81.853C170.084 81.6697 169.747 81.3906 169.479 81.0156C169.215 80.6406 169.083 80.1676 169.083 79.5966V69.8295ZM174.957 82V72.1818H176.465V82H174.957ZM175.724 70.5455C175.43 70.5455 175.176 70.4453 174.963 70.245C174.754 70.0447 174.65 69.804 174.65 69.5227C174.65 69.2415 174.754 69.0007 174.963 68.8004C175.176 68.6001 175.43 68.5 175.724 68.5C176.018 68.5 176.269 68.6001 176.478 68.8004C176.691 69.0007 176.798 69.2415 176.798 69.5227C176.798 69.804 176.691 70.0447 176.478 70.245C176.269 70.4453 176.018 70.5455 175.724 70.5455ZM183.217 82.2045C182.297 82.2045 181.504 81.9872 180.839 81.5526C180.174 81.1179 179.663 80.5192 179.305 79.7564C178.947 78.9936 178.768 78.1222 178.768 77.142C178.768 76.1449 178.951 75.2649 179.318 74.5021C179.689 73.7351 180.204 73.1364 180.865 72.706C181.529 72.2713 182.305 72.054 183.191 72.054C183.882 72.054 184.504 72.1818 185.058 72.4375C185.612 72.6932 186.066 73.0511 186.419 73.5114C186.773 73.9716 186.993 74.5085 187.078 75.1222H185.569C185.454 74.6747 185.199 74.2784 184.802 73.9332C184.41 73.5838 183.882 73.4091 183.217 73.4091C182.629 73.4091 182.113 73.5625 181.67 73.8693C181.231 74.1719 180.888 74.6001 180.641 75.1541C180.398 75.7038 180.277 76.3494 180.277 77.0909C180.277 77.8494 180.396 78.5099 180.635 79.0724C180.877 79.6349 181.218 80.0717 181.657 80.3828C182.1 80.6939 182.62 80.8494 183.217 80.8494C183.609 80.8494 183.965 80.7812 184.284 80.6449C184.604 80.5085 184.875 80.3125 185.096 80.0568C185.318 79.8011 185.475 79.4943 185.569 79.1364H187.078C186.993 79.7159 186.782 80.2379 186.445 80.7024C186.113 81.1626 185.672 81.5291 185.122 81.8018C184.576 82.0703 183.941 82.2045 183.217 82.2045Z" fill="black"/>
<path d="M188.585 205V191.909H193.009C194.031 191.909 194.871 192.084 195.527 192.433C196.183 192.778 196.669 193.254 196.984 193.859C197.3 194.464 197.457 195.152 197.457 195.923C197.457 196.695 197.3 197.379 196.984 197.975C196.669 198.572 196.185 199.04 195.533 199.381C194.881 199.718 194.048 199.886 193.034 199.886H189.455V198.455H192.983C193.682 198.455 194.244 198.352 194.67 198.148C195.101 197.943 195.412 197.653 195.604 197.278C195.8 196.899 195.898 196.447 195.898 195.923C195.898 195.399 195.8 194.941 195.604 194.549C195.408 194.157 195.094 193.854 194.664 193.641C194.234 193.424 193.665 193.315 192.957 193.315H190.17V205H188.585ZM194.747 199.119L197.969 205H196.128L192.957 199.119H194.747ZM201.684 191.909V205H200.099V191.909H201.684ZM205.4 205H203.738L208.544 191.909H210.181L214.988 205H213.326L209.414 193.98H209.311L205.4 205ZM206.013 199.886H212.712V201.293H206.013V199.886ZM224.186 195.182C224.109 194.534 223.798 194.031 223.252 193.673C222.707 193.315 222.038 193.136 221.245 193.136C220.666 193.136 220.159 193.23 219.724 193.418C219.294 193.605 218.957 193.863 218.714 194.191C218.475 194.519 218.356 194.892 218.356 195.31C218.356 195.659 218.439 195.96 218.605 196.211C218.776 196.458 218.993 196.665 219.257 196.831C219.522 196.993 219.799 197.127 220.088 197.234C220.378 197.336 220.645 197.419 220.887 197.483L222.217 197.841C222.558 197.93 222.937 198.054 223.355 198.212C223.777 198.369 224.179 198.585 224.563 198.857C224.951 199.126 225.27 199.471 225.522 199.893C225.773 200.315 225.899 200.832 225.899 201.446C225.899 202.153 225.713 202.793 225.343 203.364C224.976 203.935 224.439 204.388 223.732 204.725C223.029 205.062 222.174 205.23 221.169 205.23C220.231 205.23 219.419 205.079 218.733 204.776C218.051 204.474 217.515 204.052 217.123 203.511C216.735 202.969 216.515 202.341 216.464 201.625H218.1C218.143 202.119 218.309 202.528 218.599 202.852C218.893 203.172 219.264 203.411 219.711 203.568C220.163 203.722 220.649 203.798 221.169 203.798C221.774 203.798 222.317 203.7 222.799 203.504C223.28 203.304 223.662 203.027 223.943 202.673C224.224 202.315 224.365 201.898 224.365 201.42C224.365 200.986 224.243 200.632 224 200.359C223.757 200.087 223.438 199.865 223.042 199.695C222.645 199.524 222.217 199.375 221.757 199.247L220.146 198.787C219.123 198.493 218.314 198.073 217.717 197.528C217.12 196.982 216.822 196.268 216.822 195.386C216.822 194.653 217.02 194.014 217.417 193.469C217.817 192.919 218.354 192.493 219.027 192.19C219.705 191.884 220.461 191.73 221.297 191.73C222.14 191.73 222.89 191.881 223.547 192.184C224.203 192.482 224.723 192.891 225.106 193.411C225.494 193.931 225.699 194.521 225.72 195.182H224.186ZM228.505 205V191.909H236.406V193.315H230.09V197.739H235.997V199.145H230.09V203.594H236.508V205H228.505ZM249.797 196H248.212C248.118 195.544 247.954 195.143 247.72 194.798C247.49 194.453 247.208 194.163 246.876 193.929C246.548 193.69 246.183 193.511 245.783 193.392C245.382 193.273 244.965 193.213 244.53 193.213C243.737 193.213 243.019 193.413 242.376 193.814C241.737 194.214 241.227 194.805 240.848 195.585C240.473 196.364 240.286 197.321 240.286 198.455C240.286 199.588 240.473 200.545 240.848 201.325C241.227 202.104 241.737 202.695 242.376 203.095C243.019 203.496 243.737 203.696 244.53 203.696C244.965 203.696 245.382 203.636 245.783 203.517C246.183 203.398 246.548 203.221 246.876 202.987C247.208 202.748 247.49 202.456 247.72 202.111C247.954 201.761 248.118 201.361 248.212 200.909H249.797C249.678 201.578 249.46 202.177 249.145 202.705C248.83 203.234 248.438 203.683 247.969 204.054C247.5 204.42 246.974 204.7 246.39 204.891C245.811 205.083 245.191 205.179 244.53 205.179C243.414 205.179 242.421 204.906 241.551 204.361C240.682 203.815 239.998 203.04 239.499 202.034C239.001 201.028 238.752 199.835 238.752 198.455C238.752 197.074 239.001 195.881 239.499 194.875C239.998 193.869 240.682 193.094 241.551 192.548C242.421 192.003 243.414 191.73 244.53 191.73C245.191 191.73 245.811 191.826 246.39 192.018C246.974 192.21 247.5 192.491 247.969 192.862C248.438 193.228 248.83 193.675 249.145 194.204C249.46 194.728 249.678 195.327 249.797 196Z" fill="black"/>
<path d="M292 0L356.952 37.5V112.5L292 150L227.048 112.5V37.5L292 0Z" fill="#06B6D4"/>
<path d="M241.17 68.9091V82H239.585V68.9091H241.17ZM245.653 76.0938V82H244.144V72.1818H245.602V73.7159H245.73C245.96 73.2173 246.309 72.8168 246.778 72.5142C247.247 72.2074 247.852 72.054 248.593 72.054C249.258 72.054 249.84 72.1903 250.338 72.4631C250.837 72.7315 251.225 73.1406 251.502 73.6903C251.779 74.2358 251.917 74.9261 251.917 75.7614V82H250.409V75.8636C250.409 75.0923 250.208 74.4915 249.808 74.0611C249.407 73.6264 248.857 73.4091 248.159 73.4091C247.677 73.4091 247.247 73.5135 246.867 73.7223C246.492 73.9311 246.196 74.2358 245.979 74.6364C245.762 75.0369 245.653 75.5227 245.653 76.0938ZM262.35 72.1818L258.72 82H257.186L253.555 72.1818H255.191L257.902 80.0057H258.004L260.714 72.1818H262.35ZM268.107 82.2045C267.161 82.2045 266.344 81.9957 265.658 81.5781C264.977 81.1562 264.45 80.5682 264.08 79.8139C263.713 79.0554 263.53 78.1733 263.53 77.1676C263.53 76.1619 263.713 75.2756 264.08 74.5085C264.45 73.7372 264.966 73.1364 265.626 72.706C266.291 72.2713 267.067 72.054 267.953 72.054C268.464 72.054 268.969 72.1392 269.468 72.3097C269.967 72.4801 270.42 72.7571 270.83 73.1406C271.239 73.5199 271.565 74.0227 271.808 74.6491C272.05 75.2756 272.172 76.0469 272.172 76.9631V77.6023H264.604V76.2983H270.638C270.638 75.7443 270.527 75.25 270.305 74.8153C270.088 74.3807 269.777 74.0376 269.372 73.7862C268.972 73.5348 268.499 73.4091 267.953 73.4091C267.352 73.4091 266.832 73.5582 266.393 73.8565C265.959 74.1506 265.624 74.5341 265.39 75.0071C265.156 75.4801 265.038 75.9872 265.038 76.5284V77.3977C265.038 78.1392 265.166 78.7678 265.422 79.2834C265.682 79.7947 266.042 80.1847 266.502 80.4531C266.962 80.7173 267.497 80.8494 268.107 80.8494C268.503 80.8494 268.861 80.794 269.18 80.6832C269.504 80.5682 269.783 80.3977 270.018 80.1719C270.252 79.9418 270.433 79.6562 270.561 79.3153L272.018 79.7244C271.865 80.2188 271.607 80.6534 271.245 81.0284C270.883 81.3991 270.435 81.6889 269.903 81.8977C269.37 82.1023 268.771 82.2045 268.107 82.2045ZM281.421 74.3807L280.066 74.7642C279.981 74.5384 279.855 74.3189 279.689 74.1058C279.527 73.8885 279.305 73.7095 279.024 73.5689C278.743 73.4283 278.383 73.358 277.944 73.358C277.343 73.358 276.842 73.4964 276.442 73.7734C276.045 74.0462 275.847 74.3935 275.847 74.8153C275.847 75.1903 275.984 75.4865 276.256 75.7038C276.529 75.9212 276.955 76.1023 277.535 76.2472L278.992 76.6051C279.87 76.8182 280.524 77.1442 280.955 77.5831C281.385 78.0178 281.6 78.5781 281.6 79.2642C281.6 79.8267 281.438 80.3295 281.114 80.7727C280.795 81.2159 280.347 81.5653 279.772 81.821C279.197 82.0767 278.528 82.2045 277.765 82.2045C276.763 82.2045 275.935 81.9872 275.278 81.5526C274.622 81.1179 274.207 80.483 274.032 79.6477L275.464 79.2898C275.6 79.8182 275.858 80.2145 276.237 80.4787C276.621 80.7429 277.121 80.875 277.739 80.875C278.442 80.875 279.001 80.7259 279.414 80.4276C279.832 80.125 280.04 79.7628 280.04 79.3409C280.04 79 279.921 78.7145 279.683 78.4844C279.444 78.25 279.077 78.0753 278.583 77.9602L276.947 77.5767C276.048 77.3636 275.387 77.0334 274.965 76.5859C274.548 76.1342 274.339 75.5696 274.339 74.892C274.339 74.3381 274.494 73.848 274.805 73.4219C275.121 72.9957 275.549 72.6612 276.09 72.4183C276.636 72.1754 277.254 72.054 277.944 72.054C278.915 72.054 279.678 72.267 280.232 72.6932C280.79 73.1193 281.187 73.6818 281.421 74.3807ZM288.141 72.1818V73.4602H283.053V72.1818H288.141ZM284.536 69.8295H286.044V79.1875C286.044 79.6136 286.106 79.9332 286.23 80.1463C286.357 80.3551 286.519 80.4957 286.715 80.5682C286.916 80.6364 287.127 80.6705 287.348 80.6705C287.514 80.6705 287.651 80.6619 287.757 80.6449C287.864 80.6236 287.949 80.6065 288.013 80.5938L288.32 81.9489C288.218 81.9872 288.075 82.0256 287.892 82.0639C287.708 82.1065 287.476 82.1278 287.195 82.1278C286.769 82.1278 286.351 82.0362 285.942 81.853C285.537 81.6697 285.2 81.3906 284.932 81.0156C284.668 80.6406 284.536 80.1676 284.536 79.5966V69.8295ZM290.41 82V72.1818H291.919V82H290.41ZM291.177 70.5455C290.883 70.5455 290.629 70.4453 290.416 70.245C290.208 70.0447 290.103 69.804 290.103 69.5227C290.103 69.2415 290.208 69.0007 290.416 68.8004C290.629 68.6001 290.883 68.5 291.177 68.5C291.471 68.5 291.722 68.6001 291.931 68.8004C292.144 69.0007 292.251 69.2415 292.251 69.5227C292.251 69.804 292.144 70.0447 291.931 70.245C291.722 70.4453 291.471 70.5455 291.177 70.5455ZM298.645 85.8864C297.916 85.8864 297.289 85.7926 296.765 85.6051C296.241 85.4219 295.804 85.179 295.455 84.8764C295.11 84.5781 294.835 84.2585 294.63 83.9176L295.832 83.0739C295.968 83.2528 296.141 83.4574 296.35 83.6875C296.559 83.9219 296.844 84.1243 297.206 84.2947C297.573 84.4695 298.052 84.5568 298.645 84.5568C299.437 84.5568 300.091 84.3651 300.607 83.9815C301.123 83.598 301.38 82.9972 301.38 82.179V80.1847H301.252C301.142 80.3636 300.984 80.5852 300.779 80.8494C300.579 81.1094 300.289 81.3416 299.91 81.5462C299.535 81.7464 299.028 81.8466 298.389 81.8466C297.596 81.8466 296.885 81.6591 296.254 81.2841C295.627 80.9091 295.131 80.3636 294.765 79.6477C294.402 78.9318 294.221 78.0625 294.221 77.0398C294.221 76.0341 294.398 75.1584 294.752 74.4126C295.105 73.6626 295.598 73.0831 296.228 72.674C296.859 72.2607 297.588 72.054 298.414 72.054C299.054 72.054 299.561 72.1605 299.936 72.3736C300.315 72.5824 300.605 72.821 300.805 73.0895C301.01 73.3537 301.167 73.571 301.278 73.7415H301.431V72.1818H302.889V82.2812C302.889 83.125 302.697 83.8111 302.314 84.3395C301.934 84.8722 301.423 85.2621 300.779 85.5092C300.14 85.7607 299.429 85.8864 298.645 85.8864ZM298.593 80.4915C299.199 80.4915 299.71 80.353 300.127 80.076C300.545 79.799 300.863 79.4006 301.08 78.8807C301.297 78.3608 301.406 77.7386 301.406 77.0142C301.406 76.3068 301.299 75.6825 301.086 75.1413C300.873 74.6001 300.558 74.1761 300.14 73.8693C299.723 73.5625 299.207 73.4091 298.593 73.4091C297.954 73.4091 297.422 73.571 296.995 73.8949C296.574 74.2187 296.256 74.6534 296.043 75.1989C295.834 75.7443 295.73 76.3494 295.73 77.0142C295.73 77.696 295.836 78.299 296.049 78.8232C296.267 79.343 296.586 79.7521 297.008 80.0504C297.434 80.3445 297.963 80.4915 298.593 80.4915ZM308.539 82.2301C307.917 82.2301 307.353 82.1129 306.846 81.8786C306.338 81.6399 305.936 81.2969 305.637 80.8494C305.339 80.3977 305.19 79.8523 305.19 79.2131C305.19 78.6506 305.301 78.1946 305.522 77.8452C305.744 77.4915 306.04 77.2145 306.411 77.0142C306.782 76.8139 307.191 76.6648 307.638 76.5668C308.09 76.4645 308.544 76.3835 309 76.3239C309.596 76.2472 310.08 76.1896 310.451 76.1513C310.826 76.1087 311.098 76.0384 311.269 75.9403C311.444 75.8423 311.531 75.6719 311.531 75.429V75.3778C311.531 74.7472 311.358 74.2571 311.013 73.9077C310.672 73.5582 310.154 73.3835 309.46 73.3835C308.74 73.3835 308.175 73.5412 307.766 73.8565C307.357 74.1719 307.069 74.5085 306.903 74.8665L305.471 74.3551C305.727 73.7585 306.068 73.294 306.494 72.9616C306.924 72.625 307.393 72.3906 307.9 72.2585C308.412 72.1222 308.914 72.054 309.409 72.054C309.724 72.054 310.086 72.0923 310.495 72.169C310.909 72.2415 311.307 72.3928 311.691 72.6229C312.078 72.853 312.4 73.2003 312.656 73.6648C312.912 74.1293 313.039 74.7514 313.039 75.5312V82H311.531V80.6705H311.454C311.352 80.8835 311.181 81.1115 310.943 81.3544C310.704 81.5973 310.387 81.804 309.99 81.9744C309.594 82.1449 309.11 82.2301 308.539 82.2301ZM308.77 80.875C309.366 80.875 309.869 80.7578 310.278 80.5234C310.691 80.2891 311.002 79.9865 311.211 79.6158C311.424 79.245 311.531 78.8551 311.531 78.446V77.0653C311.467 77.142 311.326 77.2124 311.109 77.2763C310.896 77.3359 310.649 77.3892 310.368 77.4361C310.091 77.4787 309.82 77.517 309.556 77.5511C309.296 77.581 309.085 77.6065 308.923 77.6278C308.531 77.679 308.164 77.7621 307.824 77.8771C307.487 77.9879 307.214 78.1562 307.005 78.3821C306.801 78.6037 306.699 78.9062 306.699 79.2898C306.699 79.8139 306.892 80.2102 307.28 80.4787C307.672 80.7429 308.169 80.875 308.77 80.875ZM320.063 72.1818V73.4602H314.975V72.1818H320.063ZM316.458 69.8295H317.966V79.1875C317.966 79.6136 318.028 79.9332 318.151 80.1463C318.279 80.3551 318.441 80.4957 318.637 80.5682C318.838 80.6364 319.048 80.6705 319.27 80.6705C319.436 80.6705 319.573 80.6619 319.679 80.6449C319.786 80.6236 319.871 80.6065 319.935 80.5938L320.242 81.9489C320.139 81.9872 319.997 82.0256 319.813 82.0639C319.63 82.1065 319.398 82.1278 319.117 82.1278C318.691 82.1278 318.273 82.0362 317.864 81.853C317.459 81.6697 317.122 81.3906 316.854 81.0156C316.59 80.6406 316.458 80.1676 316.458 79.5966V69.8295ZM322.332 82V72.1818H323.84V82H322.332ZM323.099 70.5455C322.805 70.5455 322.551 70.4453 322.338 70.245C322.129 70.0447 322.025 69.804 322.025 69.5227C322.025 69.2415 322.129 69.0007 322.338 68.8004C322.551 68.6001 322.805 68.5 323.099 68.5C323.393 68.5 323.644 68.6001 323.853 68.8004C324.066 69.0007 324.173 69.2415 324.173 69.5227C324.173 69.804 324.066 70.0447 323.853 70.245C323.644 70.4453 323.393 70.5455 323.099 70.5455ZM334.632 72.1818L331.001 82H329.467L325.836 72.1818H327.473L330.183 80.0057H330.285L332.995 72.1818H334.632ZM340.388 82.2045C339.442 82.2045 338.626 81.9957 337.94 81.5781C337.258 81.1562 336.732 80.5682 336.361 79.8139C335.994 79.0554 335.811 78.1733 335.811 77.1676C335.811 76.1619 335.994 75.2756 336.361 74.5085C336.732 73.7372 337.247 73.1364 337.908 72.706C338.572 72.2713 339.348 72.054 340.234 72.054C340.746 72.054 341.251 72.1392 341.749 72.3097C342.248 72.4801 342.702 72.7571 343.111 73.1406C343.52 73.5199 343.846 74.0227 344.089 74.6491C344.332 75.2756 344.453 76.0469 344.453 76.9631V77.6023H336.885V76.2983H342.919C342.919 75.7443 342.808 75.25 342.587 74.8153C342.369 74.3807 342.058 74.0376 341.653 73.7862C341.253 73.5348 340.78 73.4091 340.234 73.4091C339.634 73.4091 339.114 73.5582 338.675 73.8565C338.24 74.1506 337.906 74.5341 337.671 75.0071C337.437 75.4801 337.32 75.9872 337.32 76.5284V77.3977C337.32 78.1392 337.447 78.7678 337.703 79.2834C337.963 79.7947 338.323 80.1847 338.783 80.4531C339.244 80.7173 339.778 80.8494 340.388 80.8494C340.784 80.8494 341.142 80.794 341.462 80.6832C341.786 80.5682 342.065 80.3977 342.299 80.1719C342.533 79.9418 342.714 79.6562 342.842 79.3153L344.3 79.7244C344.146 80.2188 343.888 80.6534 343.526 81.0284C343.164 81.3991 342.717 81.6889 342.184 81.8977C341.651 82.1023 341.053 82.2045 340.388 82.2045Z" fill="black"/>
<path d="M364 124L428.952 161.5V236.5L364 274L299.048 236.5V161.5L364 124Z" fill="#D946EF"/>
<path d="M346.744 196.182C346.668 195.534 346.357 195.031 345.811 194.673C345.266 194.315 344.597 194.136 343.804 194.136C343.224 194.136 342.717 194.23 342.283 194.418C341.852 194.605 341.516 194.863 341.273 195.191C341.034 195.519 340.915 195.892 340.915 196.31C340.915 196.659 340.998 196.96 341.164 197.211C341.335 197.458 341.552 197.665 341.816 197.831C342.08 197.993 342.357 198.127 342.647 198.234C342.937 198.336 343.203 198.419 343.446 198.483L344.776 198.841C345.116 198.93 345.496 199.054 345.913 199.212C346.335 199.369 346.738 199.585 347.121 199.857C347.509 200.126 347.829 200.471 348.08 200.893C348.332 201.315 348.457 201.832 348.457 202.446C348.457 203.153 348.272 203.793 347.901 204.364C347.535 204.935 346.998 205.388 346.29 205.725C345.587 206.062 344.733 206.23 343.727 206.23C342.79 206.23 341.978 206.079 341.292 205.776C340.61 205.474 340.073 205.052 339.681 204.511C339.293 203.969 339.074 203.341 339.023 202.625H340.659C340.702 203.119 340.868 203.528 341.158 203.852C341.452 204.172 341.822 204.411 342.27 204.568C342.722 204.722 343.207 204.798 343.727 204.798C344.332 204.798 344.876 204.7 345.357 204.504C345.839 204.304 346.22 204.027 346.501 203.673C346.783 203.315 346.923 202.898 346.923 202.42C346.923 201.986 346.802 201.632 346.559 201.359C346.316 201.087 345.996 200.865 345.6 200.695C345.204 200.524 344.776 200.375 344.315 200.247L342.705 199.787C341.682 199.493 340.872 199.073 340.276 198.528C339.679 197.982 339.381 197.268 339.381 196.386C339.381 195.653 339.579 195.014 339.975 194.469C340.376 193.919 340.913 193.493 341.586 193.19C342.263 192.884 343.02 192.73 343.855 192.73C344.699 192.73 345.449 192.881 346.105 193.184C346.761 193.482 347.281 193.891 347.665 194.411C348.053 194.931 348.257 195.521 348.278 196.182H346.744ZM354.848 206.205C353.961 206.205 353.184 205.994 352.515 205.572C351.85 205.15 351.33 204.56 350.955 203.801C350.584 203.043 350.399 202.156 350.399 201.142C350.399 200.119 350.584 199.227 350.955 198.464C351.33 197.701 351.85 197.109 352.515 196.687C353.184 196.265 353.961 196.054 354.848 196.054C355.734 196.054 356.51 196.265 357.175 196.687C357.844 197.109 358.363 197.701 358.734 198.464C359.109 199.227 359.297 200.119 359.297 201.142C359.297 202.156 359.109 203.043 358.734 203.801C358.363 204.56 357.844 205.15 357.175 205.572C356.51 205.994 355.734 206.205 354.848 206.205ZM354.848 204.849C355.521 204.849 356.075 204.677 356.51 204.332C356.944 203.987 357.266 203.533 357.475 202.97C357.684 202.408 357.788 201.798 357.788 201.142C357.788 200.486 357.684 199.874 357.475 199.308C357.266 198.741 356.944 198.283 356.51 197.933C356.075 197.584 355.521 197.409 354.848 197.409C354.175 197.409 353.621 197.584 353.186 197.933C352.751 198.283 352.43 198.741 352.221 199.308C352.012 199.874 351.907 200.486 351.907 201.142C351.907 201.798 352.012 202.408 352.221 202.97C352.43 203.533 352.751 203.987 353.186 204.332C353.621 204.677 354.175 204.849 354.848 204.849ZM365.588 206.205C364.668 206.205 363.875 205.987 363.21 205.553C362.545 205.118 362.034 204.519 361.676 203.756C361.318 202.994 361.139 202.122 361.139 201.142C361.139 200.145 361.322 199.265 361.689 198.502C362.06 197.735 362.575 197.136 363.236 196.706C363.901 196.271 364.676 196.054 365.562 196.054C366.253 196.054 366.875 196.182 367.429 196.438C367.983 196.693 368.437 197.051 368.79 197.511C369.144 197.972 369.364 198.509 369.449 199.122H367.94C367.825 198.675 367.57 198.278 367.173 197.933C366.781 197.584 366.253 197.409 365.588 197.409C365 197.409 364.484 197.562 364.041 197.869C363.602 198.172 363.259 198.6 363.012 199.154C362.769 199.704 362.648 200.349 362.648 201.091C362.648 201.849 362.767 202.51 363.006 203.072C363.249 203.635 363.589 204.072 364.028 204.383C364.472 204.694 364.991 204.849 365.588 204.849C365.98 204.849 366.336 204.781 366.656 204.645C366.975 204.509 367.246 204.312 367.467 204.057C367.689 203.801 367.847 203.494 367.94 203.136H369.449C369.364 203.716 369.153 204.238 368.816 204.702C368.484 205.163 368.043 205.529 367.493 205.802C366.947 206.07 366.313 206.205 365.588 206.205ZM371.654 206V196.182H373.163V206H371.654ZM372.421 194.545C372.127 194.545 371.874 194.445 371.661 194.245C371.452 194.045 371.347 193.804 371.347 193.523C371.347 193.241 371.452 193.001 371.661 192.8C371.874 192.6 372.127 192.5 372.421 192.5C372.715 192.5 372.967 192.6 373.175 192.8C373.388 193.001 373.495 193.241 373.495 193.523C373.495 193.804 373.388 194.045 373.175 194.245C372.967 194.445 372.715 194.545 372.421 194.545ZM378.815 206.23C378.193 206.23 377.628 206.113 377.121 205.879C376.614 205.64 376.211 205.297 375.913 204.849C375.615 204.398 375.465 203.852 375.465 203.213C375.465 202.651 375.576 202.195 375.798 201.845C376.019 201.491 376.316 201.214 376.686 201.014C377.057 200.814 377.466 200.665 377.914 200.567C378.365 200.464 378.819 200.384 379.275 200.324C379.872 200.247 380.355 200.19 380.726 200.151C381.101 200.109 381.374 200.038 381.544 199.94C381.719 199.842 381.806 199.672 381.806 199.429V199.378C381.806 198.747 381.634 198.257 381.289 197.908C380.948 197.558 380.43 197.384 379.735 197.384C379.015 197.384 378.45 197.541 378.041 197.857C377.632 198.172 377.345 198.509 377.178 198.866L375.747 198.355C376.002 197.759 376.343 197.294 376.769 196.962C377.2 196.625 377.669 196.391 378.176 196.259C378.687 196.122 379.19 196.054 379.684 196.054C379.999 196.054 380.362 196.092 380.771 196.169C381.184 196.241 381.583 196.393 381.966 196.623C382.354 196.853 382.676 197.2 382.931 197.665C383.187 198.129 383.315 198.751 383.315 199.531V206H381.806V204.67H381.73C381.627 204.884 381.457 205.112 381.218 205.354C380.98 205.597 380.662 205.804 380.266 205.974C379.869 206.145 379.386 206.23 378.815 206.23ZM379.045 204.875C379.642 204.875 380.144 204.758 380.553 204.523C380.967 204.289 381.278 203.987 381.487 203.616C381.7 203.245 381.806 202.855 381.806 202.446V201.065C381.742 201.142 381.602 201.212 381.384 201.276C381.171 201.336 380.924 201.389 380.643 201.436C380.366 201.479 380.095 201.517 379.831 201.551C379.571 201.581 379.36 201.607 379.198 201.628C378.806 201.679 378.44 201.762 378.099 201.877C377.762 201.988 377.49 202.156 377.281 202.382C377.076 202.604 376.974 202.906 376.974 203.29C376.974 203.814 377.168 204.21 377.556 204.479C377.948 204.743 378.444 204.875 379.045 204.875ZM387.577 192.909V206H386.068V192.909H387.577Z" fill="black"/>
<path d="M291 247L355.952 284.5V359.5L291 397L226.048 359.5V284.5L291 247Z" fill="#22C55E"/>
<path d="M249.182 319H247.597C247.503 318.544 247.339 318.143 247.104 317.798C246.874 317.453 246.593 317.163 246.261 316.929C245.933 316.69 245.568 316.511 245.168 316.392C244.767 316.273 244.349 316.213 243.915 316.213C243.122 316.213 242.404 316.413 241.761 316.814C241.121 317.214 240.612 317.805 240.233 318.585C239.858 319.364 239.67 320.321 239.67 321.455C239.67 322.588 239.858 323.545 240.233 324.325C240.612 325.104 241.121 325.695 241.761 326.095C242.404 326.496 243.122 326.696 243.915 326.696C244.349 326.696 244.767 326.636 245.168 326.517C245.568 326.398 245.933 326.221 246.261 325.987C246.593 325.748 246.874 325.456 247.104 325.111C247.339 324.761 247.503 324.361 247.597 323.909H249.182C249.063 324.578 248.845 325.177 248.53 325.705C248.214 326.234 247.822 326.683 247.354 327.054C246.885 327.42 246.359 327.7 245.775 327.891C245.195 328.083 244.575 328.179 243.915 328.179C242.798 328.179 241.805 327.906 240.936 327.361C240.067 326.815 239.383 326.04 238.884 325.034C238.386 324.028 238.136 322.835 238.136 321.455C238.136 320.074 238.386 318.881 238.884 317.875C239.383 316.869 240.067 316.094 240.936 315.548C241.805 315.003 242.798 314.73 243.915 314.73C244.575 314.73 245.195 314.826 245.775 315.018C246.359 315.21 246.885 315.491 247.354 315.862C247.822 316.228 248.214 316.675 248.53 317.204C248.845 317.728 249.063 318.327 249.182 319ZM255.528 328.205C254.641 328.205 253.863 327.994 253.194 327.572C252.53 327.15 252.01 326.56 251.635 325.801C251.264 325.043 251.079 324.156 251.079 323.142C251.079 322.119 251.264 321.227 251.635 320.464C252.01 319.701 252.53 319.109 253.194 318.687C253.863 318.265 254.641 318.054 255.528 318.054C256.414 318.054 257.189 318.265 257.854 318.687C258.523 319.109 259.043 319.701 259.414 320.464C259.789 321.227 259.976 322.119 259.976 323.142C259.976 324.156 259.789 325.043 259.414 325.801C259.043 326.56 258.523 327.15 257.854 327.572C257.189 327.994 256.414 328.205 255.528 328.205ZM255.528 326.849C256.201 326.849 256.755 326.677 257.189 326.332C257.624 325.987 257.946 325.533 258.155 324.97C258.363 324.408 258.468 323.798 258.468 323.142C258.468 322.486 258.363 321.874 258.155 321.308C257.946 320.741 257.624 320.283 257.189 319.933C256.755 319.584 256.201 319.409 255.528 319.409C254.854 319.409 254.3 319.584 253.866 319.933C253.431 320.283 253.109 320.741 252.9 321.308C252.692 321.874 252.587 322.486 252.587 323.142C252.587 323.798 252.692 324.408 252.9 324.97C253.109 325.533 253.431 325.987 253.866 326.332C254.3 326.677 254.854 326.849 255.528 326.849ZM263.788 322.094V328H262.279V318.182H263.737V319.716H263.864C264.094 319.217 264.444 318.817 264.913 318.514C265.381 318.207 265.987 318.054 266.728 318.054C267.393 318.054 267.974 318.19 268.473 318.463C268.972 318.732 269.359 319.141 269.636 319.69C269.913 320.236 270.052 320.926 270.052 321.761V328H268.543V321.864C268.543 321.092 268.343 320.491 267.942 320.061C267.542 319.626 266.992 319.409 266.293 319.409C265.812 319.409 265.381 319.513 265.002 319.722C264.627 319.931 264.331 320.236 264.114 320.636C263.896 321.037 263.788 321.523 263.788 322.094ZM280.485 318.182L276.855 328H275.32L271.69 318.182H273.326L276.036 326.006H276.139L278.849 318.182H280.485ZM286.241 328.205C285.295 328.205 284.479 327.996 283.793 327.578C283.111 327.156 282.585 326.568 282.214 325.814C281.848 325.055 281.665 324.173 281.665 323.168C281.665 322.162 281.848 321.276 282.214 320.509C282.585 319.737 283.101 319.136 283.761 318.706C284.426 318.271 285.202 318.054 286.088 318.054C286.599 318.054 287.104 318.139 287.603 318.31C288.101 318.48 288.555 318.757 288.964 319.141C289.373 319.52 289.699 320.023 289.942 320.649C290.185 321.276 290.307 322.047 290.307 322.963V323.602H282.738V322.298H288.773C288.773 321.744 288.662 321.25 288.44 320.815C288.223 320.381 287.912 320.038 287.507 319.786C287.106 319.535 286.633 319.409 286.088 319.409C285.487 319.409 284.967 319.558 284.528 319.857C284.094 320.151 283.759 320.534 283.525 321.007C283.29 321.48 283.173 321.987 283.173 322.528V323.398C283.173 324.139 283.301 324.768 283.557 325.283C283.817 325.795 284.177 326.185 284.637 326.453C285.097 326.717 285.632 326.849 286.241 326.849C286.638 326.849 286.996 326.794 287.315 326.683C287.639 326.568 287.918 326.398 288.153 326.172C288.387 325.942 288.568 325.656 288.696 325.315L290.153 325.724C290 326.219 289.742 326.653 289.38 327.028C289.018 327.399 288.57 327.689 288.037 327.898C287.505 328.102 286.906 328.205 286.241 328.205ZM294.11 322.094V328H292.601V318.182H294.059V319.716H294.187C294.417 319.217 294.766 318.817 295.235 318.514C295.704 318.207 296.309 318.054 297.05 318.054C297.715 318.054 298.297 318.19 298.795 318.463C299.294 318.732 299.682 319.141 299.959 319.69C300.236 320.236 300.374 320.926 300.374 321.761V328H298.866V321.864C298.866 321.092 298.665 320.491 298.265 320.061C297.864 319.626 297.314 319.409 296.616 319.409C296.134 319.409 295.704 319.513 295.324 319.722C294.949 319.931 294.653 320.236 294.436 320.636C294.219 321.037 294.11 321.523 294.11 322.094ZM307.401 318.182V319.46H302.312V318.182H307.401ZM303.795 315.83H305.304V325.188C305.304 325.614 305.366 325.933 305.489 326.146C305.617 326.355 305.779 326.496 305.975 326.568C306.175 326.636 306.386 326.67 306.608 326.67C306.774 326.67 306.911 326.662 307.017 326.645C307.124 326.624 307.209 326.607 307.273 326.594L307.58 327.949C307.477 327.987 307.335 328.026 307.151 328.064C306.968 328.107 306.736 328.128 306.455 328.128C306.028 328.128 305.611 328.036 305.202 327.853C304.797 327.67 304.46 327.391 304.192 327.016C303.928 326.641 303.795 326.168 303.795 325.597V315.83ZM309.67 328V318.182H311.178V328H309.67ZM310.437 316.545C310.143 316.545 309.889 316.445 309.676 316.245C309.467 316.045 309.363 315.804 309.363 315.523C309.363 315.241 309.467 315.001 309.676 314.8C309.889 314.6 310.143 314.5 310.437 314.5C310.731 314.5 310.982 314.6 311.191 314.8C311.404 315.001 311.511 315.241 311.511 315.523C311.511 315.804 311.404 316.045 311.191 316.245C310.982 316.445 310.731 316.545 310.437 316.545ZM317.93 328.205C317.044 328.205 316.266 327.994 315.597 327.572C314.932 327.15 314.412 326.56 314.037 325.801C313.666 325.043 313.481 324.156 313.481 323.142C313.481 322.119 313.666 321.227 314.037 320.464C314.412 319.701 314.932 319.109 315.597 318.687C316.266 318.265 317.044 318.054 317.93 318.054C318.816 318.054 319.592 318.265 320.257 318.687C320.926 319.109 321.445 319.701 321.816 320.464C322.191 321.227 322.379 322.119 322.379 323.142C322.379 324.156 322.191 325.043 321.816 325.801C321.445 326.56 320.926 327.15 320.257 327.572C319.592 327.994 318.816 328.205 317.93 328.205ZM317.93 326.849C318.603 326.849 319.157 326.677 319.592 326.332C320.026 325.987 320.348 325.533 320.557 324.97C320.766 324.408 320.87 323.798 320.87 323.142C320.87 322.486 320.766 321.874 320.557 321.308C320.348 320.741 320.026 320.283 319.592 319.933C319.157 319.584 318.603 319.409 317.93 319.409C317.257 319.409 316.703 319.584 316.268 319.933C315.833 320.283 315.512 320.741 315.303 321.308C315.094 321.874 314.99 322.486 314.99 323.142C314.99 323.798 315.094 324.408 315.303 324.97C315.512 325.533 315.833 325.987 316.268 326.332C316.703 326.677 317.257 326.849 317.93 326.849ZM326.19 322.094V328H324.681V318.182H326.139V319.716H326.267C326.497 319.217 326.846 318.817 327.315 318.514C327.784 318.207 328.389 318.054 329.13 318.054C329.795 318.054 330.377 318.19 330.875 318.463C331.374 318.732 331.762 319.141 332.039 319.69C332.316 320.236 332.454 320.926 332.454 321.761V328H330.946V321.864C330.946 321.092 330.745 320.491 330.345 320.061C329.944 319.626 329.395 319.409 328.696 319.409C328.214 319.409 327.784 319.513 327.404 319.722C327.029 319.931 326.733 320.236 326.516 320.636C326.299 321.037 326.19 321.523 326.19 322.094ZM338.1 328.23C337.478 328.23 336.913 328.113 336.406 327.879C335.899 327.64 335.496 327.297 335.198 326.849C334.9 326.398 334.751 325.852 334.751 325.213C334.751 324.651 334.861 324.195 335.083 323.845C335.305 323.491 335.601 323.214 335.971 323.014C336.342 322.814 336.751 322.665 337.199 322.567C337.65 322.464 338.104 322.384 338.56 322.324C339.157 322.247 339.64 322.19 340.011 322.151C340.386 322.109 340.659 322.038 340.829 321.94C341.004 321.842 341.091 321.672 341.091 321.429V321.378C341.091 320.747 340.919 320.257 340.574 319.908C340.233 319.558 339.715 319.384 339.02 319.384C338.3 319.384 337.736 319.541 337.327 319.857C336.917 320.172 336.63 320.509 336.464 320.866L335.032 320.355C335.287 319.759 335.628 319.294 336.055 318.962C336.485 318.625 336.954 318.391 337.461 318.259C337.972 318.122 338.475 318.054 338.969 318.054C339.285 318.054 339.647 318.092 340.056 318.169C340.469 318.241 340.868 318.393 341.251 318.623C341.639 318.853 341.961 319.2 342.216 319.665C342.472 320.129 342.6 320.751 342.6 321.531V328H341.091V326.67H341.015C340.912 326.884 340.742 327.112 340.503 327.354C340.265 327.597 339.947 327.804 339.551 327.974C339.155 328.145 338.671 328.23 338.1 328.23ZM338.33 326.875C338.927 326.875 339.43 326.758 339.839 326.523C340.252 326.289 340.563 325.987 340.772 325.616C340.985 325.245 341.091 324.855 341.091 324.446V323.065C341.028 323.142 340.887 323.212 340.67 323.276C340.456 323.336 340.209 323.389 339.928 323.436C339.651 323.479 339.381 323.517 339.116 323.551C338.856 323.581 338.645 323.607 338.483 323.628C338.091 323.679 337.725 323.762 337.384 323.877C337.047 323.988 336.775 324.156 336.566 324.382C336.361 324.604 336.259 324.906 336.259 325.29C336.259 325.814 336.453 326.21 336.841 326.479C337.233 326.743 337.729 326.875 338.33 326.875ZM346.862 314.909V328H345.353V314.909H346.862Z" fill="black"/>
<path d="M146 247L210.952 284.5V359.5L146 397L81.0481 359.5V284.5L146 247Z" fill="#F59E0B"/>
<path d="M96.5852 328V314.909H104.486V316.315H98.1705V320.739H104.077V322.145H98.1705V326.594H104.588V328H96.5852ZM108.647 322.094V328H107.138V318.182H108.596V319.716H108.724C108.954 319.217 109.303 318.817 109.772 318.514C110.241 318.207 110.846 318.054 111.587 318.054C112.252 318.054 112.834 318.19 113.332 318.463C113.831 318.732 114.219 319.141 114.496 319.69C114.773 320.236 114.911 320.926 114.911 321.761V328H113.403V321.864C113.403 321.092 113.202 320.491 112.802 320.061C112.401 319.626 111.852 319.409 111.153 319.409C110.671 319.409 110.241 319.513 109.862 319.722C109.487 319.931 109.19 320.236 108.973 320.636C108.756 321.037 108.647 321.523 108.647 322.094ZM121.938 318.182V319.46H116.85V318.182H121.938ZM118.333 315.83H119.841V325.188C119.841 325.614 119.903 325.933 120.026 326.146C120.154 326.355 120.316 326.496 120.512 326.568C120.713 326.636 120.923 326.67 121.145 326.67C121.311 326.67 121.448 326.662 121.554 326.645C121.661 326.624 121.746 326.607 121.81 326.594L122.117 327.949C122.014 327.987 121.872 328.026 121.688 328.064C121.505 328.107 121.273 328.128 120.992 328.128C120.566 328.128 120.148 328.036 119.739 327.853C119.334 327.67 118.997 327.391 118.729 327.016C118.465 326.641 118.333 326.168 118.333 325.597V315.83ZM128.218 328.205C127.272 328.205 126.456 327.996 125.77 327.578C125.088 327.156 124.562 326.568 124.191 325.814C123.824 325.055 123.641 324.173 123.641 323.168C123.641 322.162 123.824 321.276 124.191 320.509C124.562 319.737 125.077 319.136 125.738 318.706C126.403 318.271 127.178 318.054 128.064 318.054C128.576 318.054 129.081 318.139 129.579 318.31C130.078 318.48 130.532 318.757 130.941 319.141C131.35 319.52 131.676 320.023 131.919 320.649C132.162 321.276 132.283 322.047 132.283 322.963V323.602H124.715V322.298H130.749C130.749 321.744 130.638 321.25 130.417 320.815C130.199 320.381 129.888 320.038 129.483 319.786C129.083 319.535 128.61 319.409 128.064 319.409C127.464 319.409 126.944 319.558 126.505 319.857C126.07 320.151 125.736 320.534 125.501 321.007C125.267 321.48 125.15 321.987 125.15 322.528V323.398C125.15 324.139 125.278 324.768 125.533 325.283C125.793 325.795 126.153 326.185 126.613 326.453C127.074 326.717 127.608 326.849 128.218 326.849C128.614 326.849 128.972 326.794 129.292 326.683C129.616 326.568 129.895 326.398 130.129 326.172C130.363 325.942 130.545 325.656 130.672 325.315L132.13 325.724C131.976 326.219 131.719 326.653 131.356 327.028C130.994 327.399 130.547 327.689 130.014 327.898C129.481 328.102 128.883 328.205 128.218 328.205ZM134.578 328V318.182H136.035V319.665H136.138C136.317 319.179 136.64 318.785 137.109 318.482C137.578 318.18 138.106 318.028 138.694 318.028C138.805 318.028 138.944 318.031 139.11 318.035C139.276 318.039 139.402 318.045 139.487 318.054V319.588C139.436 319.575 139.319 319.556 139.135 319.531C138.956 319.501 138.767 319.486 138.567 319.486C138.089 319.486 137.663 319.586 137.288 319.786C136.917 319.982 136.623 320.255 136.406 320.604C136.193 320.95 136.086 321.344 136.086 321.787V328H134.578ZM141.275 331.682V318.182H142.733V319.741H142.912C143.022 319.571 143.176 319.354 143.372 319.089C143.572 318.821 143.858 318.582 144.228 318.374C144.603 318.161 145.11 318.054 145.75 318.054C146.576 318.054 147.305 318.261 147.936 318.674C148.566 319.087 149.059 319.673 149.412 320.432C149.766 321.19 149.943 322.085 149.943 323.116C149.943 324.156 149.766 325.058 149.412 325.82C149.059 326.579 148.569 327.167 147.942 327.585C147.316 327.998 146.593 328.205 145.775 328.205C145.145 328.205 144.64 328.1 144.26 327.891C143.881 327.678 143.589 327.437 143.385 327.169C143.18 326.896 143.022 326.67 142.912 326.491H142.784V331.682H141.275ZM142.758 323.091C142.758 323.832 142.867 324.487 143.084 325.053C143.301 325.616 143.619 326.057 144.037 326.376C144.454 326.692 144.966 326.849 145.571 326.849C146.201 326.849 146.728 326.683 147.15 326.351C147.576 326.014 147.895 325.562 148.108 324.996C148.326 324.425 148.434 323.79 148.434 323.091C148.434 322.401 148.328 321.778 148.115 321.224C147.906 320.666 147.588 320.225 147.162 319.901C146.74 319.573 146.21 319.409 145.571 319.409C144.957 319.409 144.441 319.565 144.024 319.876C143.606 320.183 143.291 320.613 143.078 321.167C142.865 321.717 142.758 322.358 142.758 323.091ZM152.244 328V318.182H153.701V319.665H153.804C153.983 319.179 154.306 318.785 154.775 318.482C155.244 318.18 155.772 318.028 156.36 318.028C156.471 318.028 156.61 318.031 156.776 318.035C156.942 318.039 157.068 318.045 157.153 318.054V319.588C157.102 319.575 156.985 319.556 156.801 319.531C156.623 319.501 156.433 319.486 156.233 319.486C155.755 319.486 155.329 319.586 154.954 319.786C154.583 319.982 154.289 320.255 154.072 320.604C153.859 320.95 153.752 321.344 153.752 321.787V328H152.244ZM158.941 328V318.182H160.45V328H158.941ZM159.708 316.545C159.414 316.545 159.161 316.445 158.948 316.245C158.739 316.045 158.634 315.804 158.634 315.523C158.634 315.241 158.739 315.001 158.948 314.8C159.161 314.6 159.414 314.5 159.708 314.5C160.002 314.5 160.254 314.6 160.463 314.8C160.676 315.001 160.782 315.241 160.782 315.523C160.782 315.804 160.676 316.045 160.463 316.245C160.254 316.445 160.002 316.545 159.708 316.545ZM170.167 320.381L168.812 320.764C168.727 320.538 168.601 320.319 168.435 320.106C168.273 319.888 168.051 319.71 167.77 319.569C167.489 319.428 167.129 319.358 166.69 319.358C166.089 319.358 165.588 319.496 165.188 319.773C164.792 320.046 164.593 320.393 164.593 320.815C164.593 321.19 164.73 321.487 165.002 321.704C165.275 321.921 165.701 322.102 166.281 322.247L167.738 322.605C168.616 322.818 169.27 323.144 169.701 323.583C170.131 324.018 170.346 324.578 170.346 325.264C170.346 325.827 170.184 326.33 169.86 326.773C169.541 327.216 169.093 327.565 168.518 327.821C167.943 328.077 167.274 328.205 166.511 328.205C165.51 328.205 164.681 327.987 164.025 327.553C163.368 327.118 162.953 326.483 162.778 325.648L164.21 325.29C164.346 325.818 164.604 326.214 164.983 326.479C165.367 326.743 165.868 326.875 166.485 326.875C167.189 326.875 167.747 326.726 168.16 326.428C168.578 326.125 168.787 325.763 168.787 325.341C168.787 325 168.667 324.714 168.429 324.484C168.19 324.25 167.824 324.075 167.329 323.96L165.693 323.577C164.794 323.364 164.133 323.033 163.711 322.586C163.294 322.134 163.085 321.57 163.085 320.892C163.085 320.338 163.24 319.848 163.551 319.422C163.867 318.996 164.295 318.661 164.836 318.418C165.382 318.175 166 318.054 166.69 318.054C167.662 318.054 168.424 318.267 168.978 318.693C169.537 319.119 169.933 319.682 170.167 320.381ZM172.617 328V318.182H174.126V328H172.617ZM173.384 316.545C173.09 316.545 172.836 316.445 172.623 316.245C172.415 316.045 172.31 315.804 172.31 315.523C172.31 315.241 172.415 315.001 172.623 314.8C172.836 314.6 173.09 314.5 173.384 314.5C173.678 314.5 173.93 314.6 174.138 314.8C174.351 315.001 174.458 315.241 174.458 315.523C174.458 315.804 174.351 316.045 174.138 316.245C173.93 316.445 173.678 316.545 173.384 316.545ZM178.397 322.094V328H176.888V318.182H178.346V319.716H178.474C178.704 319.217 179.053 318.817 179.522 318.514C179.991 318.207 180.596 318.054 181.337 318.054C182.002 318.054 182.584 318.19 183.082 318.463C183.581 318.732 183.969 319.141 184.246 319.69C184.523 320.236 184.661 320.926 184.661 321.761V328H183.153V321.864C183.153 321.092 182.952 320.491 182.552 320.061C182.151 319.626 181.602 319.409 180.903 319.409C180.421 319.409 179.991 319.513 179.612 319.722C179.237 319.931 178.94 320.236 178.723 320.636C178.506 321.037 178.397 321.523 178.397 322.094ZM191.381 331.886C190.652 331.886 190.026 331.793 189.502 331.605C188.977 331.422 188.541 331.179 188.191 330.876C187.846 330.578 187.571 330.259 187.367 329.918L188.568 329.074C188.705 329.253 188.877 329.457 189.086 329.688C189.295 329.922 189.58 330.124 189.943 330.295C190.309 330.469 190.789 330.557 191.381 330.557C192.173 330.557 192.828 330.365 193.343 329.982C193.859 329.598 194.117 328.997 194.117 328.179V326.185H193.989C193.878 326.364 193.72 326.585 193.516 326.849C193.316 327.109 193.026 327.342 192.646 327.546C192.271 327.746 191.764 327.847 191.125 327.847C190.333 327.847 189.621 327.659 188.99 327.284C188.364 326.909 187.867 326.364 187.501 325.648C187.139 324.932 186.958 324.062 186.958 323.04C186.958 322.034 187.134 321.158 187.488 320.413C187.842 319.663 188.334 319.083 188.965 318.674C189.595 318.261 190.324 318.054 191.151 318.054C191.79 318.054 192.297 318.161 192.672 318.374C193.051 318.582 193.341 318.821 193.541 319.089C193.746 319.354 193.904 319.571 194.014 319.741H194.168V318.182H195.625V328.281C195.625 329.125 195.433 329.811 195.05 330.339C194.671 330.872 194.159 331.262 193.516 331.509C192.877 331.761 192.165 331.886 191.381 331.886ZM191.33 326.491C191.935 326.491 192.446 326.353 192.864 326.076C193.281 325.799 193.599 325.401 193.816 324.881C194.034 324.361 194.142 323.739 194.142 323.014C194.142 322.307 194.036 321.683 193.823 321.141C193.61 320.6 193.294 320.176 192.877 319.869C192.459 319.562 191.943 319.409 191.33 319.409C190.691 319.409 190.158 319.571 189.732 319.895C189.31 320.219 188.992 320.653 188.779 321.199C188.57 321.744 188.466 322.349 188.466 323.014C188.466 323.696 188.573 324.299 188.786 324.823C189.003 325.343 189.323 325.752 189.744 326.05C190.171 326.344 190.699 326.491 191.33 326.491Z" fill="black"/>
</svg>
